PathFileType	4	(X/Y/Z)	Run_200 02
DataRate	CameraRate	NumFrames	NumMarkers	Units	OrigDataRate	OrigDataStartFrame	OrigNumFrames
100	100	5	45	mm	100	361	137
Frame#	Time	RASI			LPSI			RTH1			RTH2			RTH3			LTH1			LTH2			LTH3			RTB1			RTB2			RTB3			RLMAL			RMMAL			LTB1			LTB2			LTB3			RCAL			RTOE			RMT5			LCAL			LTOE			LMT5			LACR			RACR			CLAV			C7			LPSH			RUA1			RUA2			RUA3			RLEL			RMEL			LUA1			LUA2			LUA3			LLEL			LMEL			RFAsuperior			RFAradius			LFAsuperior			LFAradius			LFAulna			LASI			RFAulna			RPSI		
		X1	Y1	Z1	X2	Y2	Z2	X3	Y3	Z3	X4	Y4	Z4	X5	Y5	Z5	X6	Y6	Z6	X7	Y7	Z7	X8	Y8	Z8	X9	Y9	Z9	X10	Y10	Z10	X11	Y11	Z11	X12	Y12	Z12	X13	Y13	Z13	X14	Y14	Z14	X15	Y15	Z15	X16	Y16	Z16	X17	Y17	Z17	X18	Y18	Z18	X19	Y19	Z19	X20	Y20	Z20	X21	Y21	Z21	X22	Y22	Z22	X23	Y23	Z23	X24	Y24	Z24	X25	Y25	Z25	X26	Y26	Z26	X27	Y27	Z27	X28	Y28	Z28	X29	Y29	Z29	X30	Y30	Z30	X31	Y31	Z31	X32	Y32	Z32	X33	Y33	Z33	X34	Y34	Z34	X35	Y35	Z35	X36	Y36	Z36	X37	Y37	Z37	X38	Y38	Z38	X39	Y39	Z39	X40	Y40	Z40	X41	Y41	Z41	X42	Y42	Z42	X43	Y43	Z43	X44	Y44	Z44	X45	Y45	Z45	

361	  3.610000	987.625873	1045.110046	-331.349197	811.251930	1077.966373	-490.762459	929.610169	775.731638	-292.371872	1008.739018	714.289857	-322.068385	950.033932	608.552608	-327.274423	917.350611	830.905401	-620.969718	1017.014723	740.987331	-612.238948	989.004942	633.098393	-599.168457	886.996829	405.866640	-361.102033	817.521095	412.810204	-314.821066	719.770434	326.261137	-344.166974	602.380856	306.585264	-318.616511	629.751109	287.345774	-397.963581	1053.169491	403.257550	-556.020727	959.174795	310.590129	-586.137500	1006.147137	217.590313	-533.291191	558.460662	340.518705	-385.268279	629.370828	132.051845	-344.300445	581.770346	189.406142	-280.372928	879.496711	 84.258245	-487.896752	1105.931022	 75.207829	-504.097557	1046.252441	 57.685218	-572.183560	920.395913	1540.355287	-608.557725	953.369921	1527.420258	-289.599261	1014.579259	1472.188284	-430.632577	900.661267	1561.310304	-447.168749	836.132168	1510.629474	-602.030832	913.569711	1381.082970	-195.605586	832.171631	1334.323489	-197.018252	843.958313	1279.937260	-152.601783	860.096230	1212.452471	-131.974994	812.973872	1201.529949	-206.045689	805.334614	1441.729683	-657.049677	739.342364	1385.321676	-610.557265	720.361685	1339.913351	-666.759324	689.509589	1264.658529	-683.657218	691.651034	1260.295462	-596.261968	908.070745	1158.643895	-169.955279	1070.073735	1195.182889	-284.871114	751.560438	1189.871765	-664.370604	926.059532	1192.992331	-681.235087	910.598416	1135.263418	-650.642269	977.794429	1053.945447	-563.870704	1053.830174	1128.427300	-284.213961	815.348259	1071.392246	-400.983425	
362	  3.620000	986.835249	1037.962527	-331.126889	809.221307	1073.049276	-488.926408	934.344314	771.216360	-292.959860	1016.452146	711.677397	-321.215588	961.598698	604.664821	-327.962037	915.113007	827.554160	-621.356692	1015.064407	738.487814	-613.222461	988.769383	630.190590	-600.156522	902.621946	404.604245	-362.037902	833.294183	411.358378	-315.440334	734.862261	325.880485	-344.640853	617.711461	307.656269	-318.293409	644.440924	287.475801	-397.860840	1048.028644	400.100348	-555.758168	949.797152	311.966671	-586.971352	992.815663	216.385980	-533.984484	573.149303	340.784622	-385.510105	644.171311	132.822181	-342.053739	597.861179	191.513478	-278.371698	859.944619	 85.087508	-488.484028	1086.718700	 73.864605	-504.373808	1026.805567	 57.394440	-572.710824	922.123379	1531.898591	-610.823928	951.684454	1522.429504	-289.858749	1015.208482	1466.411175	-430.281720	901.193539	1556.407462	-449.343096	838.541310	1499.924725	-605.978809	908.689340	1375.477838	-195.497089	825.953791	1329.519243	-199.255913	835.444855	1275.739839	-153.724969	850.155862	1208.738145	-131.538868	805.990865	1197.247903	-206.933457	810.094977	1426.886090	-661.548885	743.771136	1369.547015	-616.107559	728.062738	1322.671240	-672.102748	699.714166	1247.618708	-689.383512	700.960653	1242.843881	-602.082780	897.440525	1151.697280	-165.754546	1065.045420	1175.530234	-276.612400	761.757623	1173.067160	-669.673945	936.225718	1175.723368	-685.507437	920.438786	1118.086737	-654.861144	975.658238	1048.205246	-563.063810	1046.437031	1109.408748	-270.510341	813.652401	1065.833258	-399.681546	
363	  3.630000	985.351210	1032.043352	-330.605765	807.849580	1068.968945	-487.204191	939.003015	767.992386	-293.910426	1024.093871	711.132262	-320.991550	973.198167	602.815413	-328.283322	912.223122	823.928249	-621.377254	1011.687001	735.519386	-613.853595	986.093754	626.597076	-600.811576	918.500375	404.035868	-362.681537	849.297750	410.783751	-315.783860	750.860459	325.320703	-344.723208	634.081283	307.382980	-318.032975	660.283110	286.673791	-397.598178	1041.042600	396.296030	-556.033996	939.647320	311.707704	-587.573017	978.542489	214.499966	-534.212653	588.376827	339.357582	-385.551782	661.883181	132.684737	-340.187772	616.130520	191.990499	-276.716682	840.500885	 85.812733	-488.857765	1067.621540	 72.163994	-504.793353	1007.235068	 56.865291	-573.325677	923.973923	1524.684111	-612.534409	950.130035	1518.849757	-290.217007	1015.566711	1461.913472	-429.832980	901.653702	1552.400269	-450.999796	840.914576	1491.349295	-609.863667	904.021399	1371.858944	-195.526338	820.190640	1326.423464	-201.871542	827.722823	1273.186667	-155.418734	841.215087	1206.863248	-132.282366	799.729089	1194.285941	-208.335351	815.689019	1413.044662	-665.688374	748.783788	1354.243982	-621.395464	736.604175	1306.234905	-677.457638	711.831639	1231.088234	-695.203760	711.603444	1225.694801	-607.994742	887.308116	1146.596926	-161.991767	1058.987670	1156.973393	-269.589845	773.859016	1157.058781	-675.055275	948.282950	1159.970407	-688.664142	932.101134	1102.143763	-658.500817	973.762537	1043.777471	-562.189618	1038.399178	1092.118458	-256.380713	812.201003	1061.722057	-398.355180	
364	  3.640000	983.526890	1028.000723	-329.838861	806.805203	1065.847644	-486.137844	943.624334	766.016229	-295.012404	1031.648928	712.423286	-321.184289	984.671734	602.621437	-328.312899	908.825294	820.444273	-621.217255	1007.016245	731.459724	-614.633193	980.732993	622.424661	-600.768133	934.398604	404.104303	-363.088564	865.314421	410.996414	-315.738183	767.642591	324.484791	-344.406766	651.136257	305.792401	-317.756348	677.158219	284.943666	-397.183551	1032.212952	391.805429	-556.134144	928.755962	309.818123	-587.546251	963.477246	212.002998	-533.638098	603.965505	336.185609	-385.430320	682.508925	131.832552	-338.503277	636.228934	190.903503	-275.270229	821.069130	 86.335010	-488.948802	1048.498287	 70.681435	-505.213851	987.499462	 56.522289	-573.730769	926.081882	1518.855545	-613.615037	948.827041	1516.536277	-290.484934	1015.695724	1458.492504	-429.220602	901.862885	1549.044556	-451.988684	843.297442	1485.150437	-613.179542	899.471823	1370.358574	-195.593655	815.097321	1325.378511	-204.897482	821.025515	1272.706606	-157.492517	833.402495	1206.917034	-133.794498	793.971337	1193.194766	-209.985330	821.848137	1401.086567	-669.007203	754.370034	1339.787652	-626.340145	746.085382	1291.008813	-682.563501	725.671038	1215.639050	-700.811597	723.100110	1209.527219	-613.578014	877.843067	1143.511601	-158.647228	1051.942649	1139.985170	-263.918545	787.966208	1142.553286	-679.876549	962.216191	1147.088069	-690.256236	945.749036	1088.880896	-660.793656	972.242038	1040.417876	-561.894709	1029.898523	1077.674817	-242.640461	811.026778	1058.828316	-397.529343	
365	  3.650000	981.907272	1026.126720	-329.103687	805.626984	1063.852386	-485.823113	948.262633	765.356814	-295.683052	1038.984998	715.095640	-321.419694	995.863114	603.711795	-328.056980	905.139398	817.799179	-621.007433	1001.721214	726.846060	-615.197360	973.692066	618.493099	-600.282858	950.219853	404.506870	-363.296778	881.257999	411.602414	-315.418912	785.145779	323.221123	-343.834535	668.739317	302.836935	-317.356901	695.036942	282.246619	-396.695253	1021.642276	387.227017	-555.800049	916.523864	307.669131	-587.130573	947.545916	209.582262	-532.854753	620.015453	331.275777	-385.162320	705.717728	130.265152	-336.808818	657.788642	188.261711	-273.904745	801.415871	 86.739519	-488.972823	1029.095265	 69.868974	-505.572026	967.590962	 56.433929	-573.882978	928.462588	1514.586942	-614.137763	947.848554	1515.191906	-290.536083	1015.733102	1455.951896	-428.418242	901.878794	1546.531641	-452.543607	845.747892	1481.017798	-615.524491	895.016097	1370.483016	-195.604984	810.592092	1326.191555	-207.932088	815.076741	1274.094828	-159.554410	826.103814	1208.504567	-135.190128	788.161642	1194.123127	-211.511407	828.052452	1391.612296	-671.065685	760.393938	1326.795584	-630.972318	756.489176	1277.474035	-687.108207	740.593099	1201.962609	-705.710561	734.875781	1195.230188	-618.297891	868.787630	1142.304303	-155.661423	1043.932468	1125.545743	-259.071289	803.808750	1130.388076	-683.435498	977.604743	1138.468713	-689.895155	961.252670	1079.710292	-661.157471	970.857008	1038.052199	-562.515296	1021.063902	1067.151283	-229.733914	809.898286	1056.999122	-397.368308	
